<svg id="Group_17769" data-name="Group 17769" xmlns="http://www.w3.org/2000/svg" width="52.277" height="52.277" viewBox="0 0 52.277 52.277">
  <path id="location-arrow-circle" d="M707.389,2637.25a26.139,26.139,0,1,0,26.139,26.139A26.167,26.167,0,0,0,707.389,2637.25Z" transform="translate(-681.25 -2637.25)" fill="#061a55"/>
  <g id="Group_17768" data-name="Group 17768" transform="translate(12.157 14.588)">
    <path id="Path_22646" data-name="Path 22646" d="M707.317,2643.554l-19.27,9.065a3.129,3.129,0,0,0,.472,5.84l4.639,1.326a3.03,3.03,0,0,1,2.089,2.088l1.325,4.639a3.109,3.109,0,0,0,2.755,2.259c.09,0,.175.01.263.01a3.1,3.1,0,0,0,2.82-1.8l9.067-19.268a3.127,3.127,0,0,0-4.16-4.163Z" transform="translate(-686.25 -2643.25)" fill="#fff"/>
  </g>
</svg>
