<svg xmlns="http://www.w3.org/2000/svg" width="189" height="218" viewBox="0 0 189 218">
  <g id="Group_17805" data-name="Group 17805" transform="translate(-1182 -778)">
    <g id="Ellipse_49" data-name="Ellipse 49" transform="translate(1182 778)" fill="none" stroke="#870052" stroke-width="5">
      <ellipse cx="94.5" cy="95" rx="94.5" ry="95" stroke="none"/>
      <ellipse cx="94.5" cy="95" rx="92" ry="92.5" fill="none"/>
    </g>
    <ellipse id="Ellipse_48" data-name="Ellipse 48" cx="35.5" cy="36" rx="35.5" ry="36" transform="translate(1241 924)" fill="#061a55"/>
    <text id="_4" data-name="4" transform="translate(1277 974)" fill="#fff" font-size="35" font-family="Poppins-Bold, Poppins" font-weight="700"><tspan x="-11" y="0">4</tspan></text>
    <path id="chat-dots-notification" d="M2311.559,841.26a5.325,5.325,0,0,1-5.035-6.985l2.545-7.572a3.572,3.572,0,0,0-.082-2.6,29.47,29.47,0,0,1,26.771-41.857,27.65,27.65,0,0,1,3.3.2,2.271,2.271,0,0,1-.546,4.509,22.428,22.428,0,0,0-2.753-.166,24.926,24.926,0,0,0-22.661,35.384,8.112,8.112,0,0,1,.284,5.941l-2.551,7.6a.73.73,0,0,0,.193.775.739.739,0,0,0,.778.194l7.56-2.539a8.106,8.106,0,0,1,6,.285,24.925,24.925,0,0,0,35.363-22.673,23.072,23.072,0,0,0-.163-2.754,2.27,2.27,0,0,1,4.506-.548,27.174,27.174,0,0,1,.2,3.3,29.464,29.464,0,0,1-41.836,26.78,3.584,3.584,0,0,0-2.648-.079l-7.532,2.53A5.357,5.357,0,0,1,2311.559,841.26Zm53.7-50.688a8.323,8.323,0,1,0-8.322,8.322A8.331,8.331,0,0,0,2365.261,790.572Zm-4.54,0a3.783,3.783,0,1,1-3.782-3.783A3.786,3.786,0,0,1,2360.722,790.572Zm-21.88,21.184a3.028,3.028,0,0,0-3.027-3.026h-.031a3.026,3.026,0,1,0,3.057,3.026Zm12.1,0a3.027,3.027,0,0,0-3.026-3.026h-.031a3.026,3.026,0,1,0,3.056,3.026Zm-24.21,0a3.027,3.027,0,0,0-3.027-3.026h-.03a3.026,3.026,0,1,0,3.057,3.026Z" transform="translate(-1059.095 59.906)" fill="#870052"/>
  </g>
</svg>
