<svg xmlns="http://www.w3.org/2000/svg" width="189" height="218" viewBox="0 0 189 218">
  <g id="Group_17806" data-name="Group 17806" transform="translate(-867 -778)">
    <g id="Ellipse_49" data-name="Ellipse 49" transform="translate(867 778)" fill="none" stroke="#870052" stroke-width="5">
      <ellipse cx="94.5" cy="95" rx="94.5" ry="95" stroke="none"/>
      <ellipse cx="94.5" cy="95" rx="92" ry="92.5" fill="none"/>
    </g>
    <ellipse id="Ellipse_48" data-name="Ellipse 48" cx="35.5" cy="36" rx="35.5" ry="36" transform="translate(926 924)" fill="#061a55"/>
    <text id="_3" data-name="3" transform="translate(960 974)" fill="#fff" font-size="35" font-family="Poppins-Bold, Poppins" font-weight="700"><tspan x="-10" y="0">3</tspan></text>
    <path id="coupon-percent" d="M1208.1,462.635h-37.978c-7.653,0-11.868-4.216-11.868-11.868V438.9h2.374a3.956,3.956,0,0,0,0-7.912h-2.374V419.118c0-7.653,4.216-11.868,11.868-11.868H1208.1c7.653,0,11.868,4.216,11.868,11.868v11.868h-2.374a3.956,3.956,0,0,0,0,7.912h2.374v11.868C1219.965,458.419,1215.749,462.635,1208.1,462.635ZM1163,443.317v7.45c0,4.991,2.13,7.121,7.121,7.121H1208.1c4.991,0,7.121-2.13,7.121-7.121v-7.45a8.7,8.7,0,0,1,0-16.748v-7.45c0-4.991-2.13-7.121-7.121-7.121h-37.978c-4.991,0-7.121,2.13-7.121,7.121v7.45a8.7,8.7,0,0,1,0,16.748Zm19.875,1.215,15.824-15.824a2.372,2.372,0,0,0-3.355-3.355l-15.824,15.824a2.372,2.372,0,1,0,3.355,3.355Zm1.487-17.5a3.161,3.161,0,0,0-3.159-3.165h-.028a3.165,3.165,0,1,0,3.187,3.165Zm15.824,15.824a3.161,3.161,0,0,0-3.159-3.165H1197a3.165,3.165,0,1,0,3.187,3.165Z" transform="translate(-227.25 437.75)" fill="#870052"/>
  </g>
</svg>
