<svg xmlns="http://www.w3.org/2000/svg" width="190" height="218" viewBox="0 0 190 218">
  <g id="Group_17807" data-name="Group 17807" transform="translate(-552 -778)">
    <g id="Ellipse_49" data-name="Ellipse 49" transform="translate(552 778)" fill="none" stroke="#870052" stroke-width="5">
      <circle cx="95" cy="95" r="95" stroke="none"/>
      <circle cx="95" cy="95" r="92.5" fill="none"/>
    </g>
    <circle id="Ellipse_48" data-name="Ellipse 48" cx="36" cy="36" r="36" transform="translate(611 924)" fill="#061a55"/>
    <text id="_2" data-name="2" transform="translate(647 974)" fill="#fff" font-size="35" font-family="Poppins-Bold, Poppins" font-weight="700"><tspan x="-9" y="0">2</tspan></text>
    <path id="cursor-click" d="M795.626,392.2l-24.379-20.13a7.232,7.232,0,0,0-11.833,5.9v0l1.528,31.49a6.529,6.529,0,0,0,4.649,5.982,6.737,6.737,0,0,0,1.992.306,6.554,6.554,0,0,0,5.25-2.637l5.277-6.983a5.724,5.724,0,0,1,4.542-2.254h8.757a6.595,6.595,0,0,0,4.219-11.679Zm-2.731,5.6a1.516,1.516,0,0,1-1.488,1.038h-8.757a10.793,10.793,0,0,0-8.562,4.256l-5.277,6.983a1.529,1.529,0,0,1-1.737.554,1.5,1.5,0,0,1-1.1-1.414l-1.528-31.49a2.13,2.13,0,0,1,1.2-2.042,2.177,2.177,0,0,1,2.4.269l24.379,20.13A1.487,1.487,0,0,1,792.9,397.8ZM759.4,359.487v-6.718a2.519,2.519,0,1,1,5.038,0v6.718a2.519,2.519,0,1,1-5.038,0Zm-6.2,6.8a2.514,2.514,0,0,1-2.2,1.29,2.481,2.481,0,0,1-1.223-.319l-6.718-3.749a2.519,2.519,0,1,1,2.452-4.4l6.718,3.749A2.524,2.524,0,0,1,753.207,366.285Zm-2.465,8.871a2.519,2.519,0,0,1-1.129,3.379l-6.718,3.359a2.5,2.5,0,0,1-1.122.265,2.519,2.519,0,0,1-1.129-4.773l6.718-3.359A2.521,2.521,0,0,1,750.742,375.156ZM773.1,363.971a2.519,2.519,0,0,1,1.128-3.379l6.718-3.359a2.519,2.519,0,1,1,2.251,4.508l-6.718,3.359a2.519,2.519,0,0,1-3.379-1.129Z" transform="translate(-122.891 484.35)" fill="#870052"/>
  </g>
</svg>
