<svg xmlns="http://www.w3.org/2000/svg" width="189" height="218" viewBox="0 0 189 218">
  <g id="Group_17804" data-name="Group 17804" transform="translate(-1496 -778)">
    <g id="Ellipse_49" data-name="Ellipse 49" transform="translate(1496 778)" fill="none" stroke="#870052" stroke-width="5">
      <ellipse cx="94.5" cy="95" rx="94.5" ry="95" stroke="none"/>
      <ellipse cx="94.5" cy="95" rx="92" ry="92.5" fill="none"/>
    </g>
    <ellipse id="Ellipse_48" data-name="Ellipse 48" cx="35.5" cy="36" rx="35.5" ry="36" transform="translate(1555 924)" fill="#061a55"/>
    <text id="_5" data-name="5" transform="translate(1591 974)" fill="#fff" font-size="35" font-family="Poppins-Bold, Poppins" font-weight="700"><tspan x="-11" y="0">5</tspan></text>
    <path id="store" d="M1780.154,256.284l-3.333-9.859c-1.569-4.633-3.51-8.175-12.853-8.175h-28.875c-9.342,0-11.284,3.542-12.849,8.175l-3.34,9.859a11.981,11.981,0,0,0,2.554,12.1v20.4c0,7.758,4.274,12.031,12.031,12.031h32.083c7.758,0,12.031-4.274,12.031-12.031v-20.4A11.972,11.972,0,0,0,1780.154,256.284Zm-56.691,1.543,3.34-9.859c1.1-3.266,1.658-4.906,8.29-4.906h28.875c6.632,0,7.186,1.639,8.293,4.906l3.334,9.859a6.936,6.936,0,0,1-2.769,8.31c-3.936,2.271-9.894.006-11.258-3.828a2.408,2.408,0,0,0-2.268-1.6h-.01a2.4,2.4,0,0,0-2.265,1.617c-.949,2.737-4.171,4.8-7.5,4.8s-6.545-2.063-7.494-4.8a2.4,2.4,0,0,0-2.265-1.617,2.7,2.7,0,0,0-2.278,1.6c-.975,2.743-4.213,4.816-7.536,4.816a7.422,7.422,0,0,1-3.721-.988A6.941,6.941,0,0,1,1723.463,257.827ZM1753.638,296h-8.021v-8.823a4.01,4.01,0,0,1,8.021,0Zm11.934,0h-7.122v-8.823a8.823,8.823,0,1,0-17.646,0V296h-7.315c-5.06,0-7.219-2.159-7.219-7.219V271.309a13.7,13.7,0,0,0,13.478-3.658,13.306,13.306,0,0,0,19.565,0,13.477,13.477,0,0,0,9.792,4.286,12.324,12.324,0,0,0,3.687-.587v17.431C1772.791,293.841,1770.632,296,1765.572,296Z" transform="translate(-159.092 598.908)" fill="#870052"/>
  </g>
</svg>
