<svg xmlns="http://www.w3.org/2000/svg" width="42.215" height="47.039" viewBox="0 0 42.215 47.039">
  <path id="location-pin" d="M144.357,2526.25a21.131,21.131,0,0,0-21.107,21.107c0,12.346,11.33,19.829,18.828,24.781l1.276.847a1.81,1.81,0,0,0,2.007,0l1.276-.847c7.5-4.952,18.828-12.435,18.828-24.781A21.131,21.131,0,0,0,144.357,2526.25Zm.287,42.868-.287.191-.287-.191c-7.258-4.793-17.2-11.361-17.2-21.761a17.489,17.489,0,0,1,34.978,0C161.846,2557.757,151.9,2564.325,144.644,2569.118Zm-.287-29.6a7.84,7.84,0,1,0,7.84,7.84A7.849,7.849,0,0,0,144.357,2539.517Zm0,12.061a4.221,4.221,0,1,1,4.221-4.221A4.226,4.226,0,0,1,144.357,2551.578Z" transform="translate(-123.25 -2526.25)" fill="#870052"/>
</svg>
